<?xml version="1.0" encoding="utf-8"?>
<!-- Generator: Adobe Illustrator 24.1.2, SVG Export Plug-In . SVG Version: 6.00 Build 0)  -->
<svg version="1.1" id="レイヤー_1" xmlns="http://www.w3.org/2000/svg" xmlns:xlink="http://www.w3.org/1999/xlink" x="0px"
	 y="0px" viewBox="0 0 107.3 18.5" style="enable-background:new 0 0 107.3 18.5;" xml:space="preserve">
<style type="text/css">
	.st0{fill:#0AA095;}
</style>
<g>
	<g>
		<path class="st0" d="M2.7,15.6l4.2-6.5C7.1,9,7.2,8.9,7.4,8.9c0.2,0,0.3,0.1,0.5,0.2l1,1.2c0.1,0.1,0.2,0.2,0.4,0.2l0,0
			c0.2,0,0.3-0.1,0.4-0.2l2-2.9C11.8,7.1,12,7,12.2,7s0.4,0.1,0.5,0.3l2.7,4.2c0.1,0.1,0.2,0.2,0.3,0.2c0,0,0,0,0.1,0s0.2,0,0.3-0.1
			l0.8-0.7c0.1-0.1,0.3-0.2,0.4-0.2c0.2,0,0.4,0.1,0.5,0.3l2.3,4.5H2.7V15.6z"/>
	</g>
	<g>
		<path class="st0" d="M28.3,15.6L22.5,4.4l-2.3,3c-0.1,0.2-0.3,0.3-0.6,0.3l0,0c-0.2,0-0.4-0.1-0.6-0.2L17.6,6L15,9.4l-0.9-1.3
			l2.8-3.6C17.2,4.1,17.4,4,17.6,4l0,0c0.2,0,0.4,0.1,0.6,0.2l1.4,1.5l2.5-3.2c0.1-0.2,0.4-0.3,0.6-0.3c0,0,0,0,0.1,0
			c0.3,0,0.5,0.2,0.6,0.4l6.6,13H28.3z"/>
	</g>
</g>
<g>
	<path d="M38.7,12.8l2.3-0.2l0.1-3.6c0-0.2,0.1-0.3,0.2-0.4c0.2-0.2,0.4-0.2,0.6-0.2c0.3,0,0.6,0.1,0.7,0.4c0.1,0.1,0.1,0.2,0.1,0.3
		v0l-0.2,4.9c0,0.2-0.1,0.3-0.2,0.4c-0.1,0.2-0.3,0.2-0.6,0.2c-0.4,0-0.6-0.1-0.7-0.4c0-0.1,0-0.2,0-0.3l-5.9,0.5
		c-0.1,0-0.2,0-0.3,0c-0.5,0-0.8-0.1-1-0.4c-0.2-0.2-0.2-0.5-0.3-0.8l-0.2-3.8c0-0.1,0-0.2,0.1-0.3c0.1-0.3,0.4-0.4,0.7-0.4
		c0.3,0,0.5,0.1,0.7,0.3c0.1,0.1,0.1,0.2,0.1,0.3l0.1,3.1c0,0.1,0,0.2,0.1,0.3c0.1,0.1,0.2,0.1,0.3,0.1c0,0,0.1,0,0.1,0l1.6-0.1V5.8
		c0-0.2,0.1-0.4,0.3-0.5c0.1-0.1,0.3-0.1,0.5-0.1c0.2,0,0.4,0.1,0.5,0.2c0.2,0.1,0.2,0.3,0.2,0.5V12.8z"/>
	<path class="st0" d="M50.4,7.3c0.1,0.2,0.1,0.4,0.1,0.7c0,0.6-0.2,1.3-0.5,2.3c-0.8,2.3-1.8,3.4-3,3.4c-0.5,0-0.9-0.2-1.3-0.7
		c-0.5-0.6-0.8-1.4-0.8-2.3c0-1,0.4-1.9,1.2-2.8c0.5-0.6,1.2-1,2-1.3s1.6-0.5,2.4-0.5c1.1,0,2.1,0.3,2.8,0.9c0.9,0.8,1.4,1.8,1.4,3
		c0,1.1-0.3,2.1-1,2.9c-0.5,0.6-1.2,1.1-2,1.4c-0.2,0.1-0.4,0.1-0.5,0.1c-0.2,0-0.4-0.1-0.5-0.3c0-0.1-0.1-0.2-0.1-0.2
		c0-0.2,0.1-0.4,0.4-0.5c1.4-0.8,2.2-1.9,2.2-3.3c0-0.9-0.3-1.6-0.9-2.2c-0.5-0.4-1.1-0.6-1.7-0.6H50.4z M49.1,7.6
		c-0.9,0.3-1.5,0.8-2,1.4c-0.4,0.5-0.6,1.1-0.6,1.7c0,0.5,0.1,1,0.3,1.3c0.1,0.2,0.3,0.4,0.4,0.4c0.3,0,0.7-0.4,1.1-1.3
		c0.3-0.7,0.6-1.3,0.7-2c0.1-0.4,0.2-0.8,0.2-1c0-0.1,0-0.2,0-0.3C49.1,7.7,49.1,7.6,49.1,7.6C49.1,7.6,49.1,7.6,49.1,7.6
		C49.1,7.6,49.1,7.6,49.1,7.6z"/>
	<path d="M62.5,8.3l2.7-0.2c0.1,0,0.2,0,0.3,0c0.3,0.1,0.4,0.3,0.4,0.7c0,0.3-0.1,0.5-0.3,0.6c-0.1,0.1-0.2,0.1-0.3,0.1l-2.8,0.2
		v3.4l4.1-0.2c0,0,0,0,0,0c0.2,0,0.3,0,0.4,0.1c0.1,0.1,0.2,0.3,0.2,0.6c0,0.3-0.1,0.5-0.3,0.7c-0.1,0-0.2,0.1-0.3,0.1l-9.2,0.4
		c0,0,0,0-0.1,0c-0.2,0-0.3,0-0.4-0.1c-0.1-0.1-0.2-0.3-0.2-0.5c0-0.3,0.1-0.5,0.3-0.7c0.1-0.1,0.2-0.1,0.3-0.1l3.6-0.2V5.7
		c0-0.2,0.1-0.4,0.3-0.5C61.4,5,61.5,5,61.7,5c0.2,0,0.4,0.1,0.5,0.2c0.2,0.1,0.2,0.3,0.2,0.5V8.3z"/>
	<path d="M76.3,7c-0.4,0.5-1,1.1-1.6,1.7v6c0,0.2-0.1,0.3-0.2,0.4c-0.2,0.2-0.4,0.3-0.6,0.3c-0.3,0-0.5-0.1-0.7-0.3
		c-0.1-0.1-0.1-0.2-0.1-0.4V10c-1,0.8-2.1,1.4-3.1,2c-0.3,0.2-0.6,0.3-0.8,0.3c-0.2,0-0.3-0.1-0.4-0.2c-0.1-0.1-0.1-0.2-0.1-0.4
		c0-0.1,0.1-0.3,0.2-0.4c0.1,0,0.3-0.2,0.7-0.4c1.2-0.7,2.3-1.6,3.5-2.7c0-0.3,0.1-0.4,0.2-0.5c0.1-0.1,0.2-0.1,0.4-0.1
		c0.1-0.1,0.3-0.3,0.4-0.5l-4.5,0.3l0,0c-0.2,0-0.3,0-0.4-0.2c-0.1-0.1-0.2-0.3-0.2-0.6c0-0.3,0.1-0.5,0.3-0.6
		c0.1,0,0.2-0.1,0.3-0.1l8.6-0.6c0,0,0,0,0,0c0.1,0,0.3,0,0.4,0.1c0.2,0.1,0.3,0.3,0.3,0.6c0,0.3-0.1,0.5-0.3,0.6
		c-0.1,0.1-0.2,0.1-0.3,0.1L76.3,7z M75.7,8.6c0.2,0,0.5,0.1,0.9,0.3c0.9,0.4,1.7,1,2.3,1.6c0.2,0.2,0.4,0.4,0.4,0.7
		c0,0.2-0.1,0.3-0.2,0.5C79,11.9,78.7,12,78.4,12c-0.2,0-0.4-0.1-0.6-0.2c0,0-0.1-0.1-0.2-0.2c-0.6-0.7-1.4-1.3-2.2-2
		c-0.2-0.2-0.3-0.3-0.3-0.5c0-0.1,0-0.2,0.1-0.3C75.4,8.7,75.5,8.6,75.7,8.6z"/>
	<path d="M84.2,11.4V12l1.5-0.1c0.1,0,0.2,0,0.3,0.1c0.1,0.1,0.2,0.2,0.2,0.4c0,0.3-0.1,0.5-0.4,0.5l-1.5,0.1v0.5l0.5-0.1
		c0.4-0.1,0.7-0.1,0.8-0.1c0.2,0,0.4-0.1,0.4-0.1c0.2,0,0.4,0.1,0.4,0.4c0.7-1.3,1.1-2.8,1.4-4.7L87.1,9c0,0-0.1,0-0.1,0
		c-0.2,0-0.3-0.1-0.4-0.2s-0.2-0.3-0.2-0.5c0-0.4,0.2-0.6,0.5-0.7l1-0.1c0.1-0.8,0.1-1.6,0.1-2.2c0-0.4,0.2-0.6,0.7-0.6
		c0.2,0,0.4,0.1,0.5,0.2s0.2,0.2,0.2,0.4c0,0.4-0.1,1.1-0.2,2.1L90,7.4c0.1,0,0.2,0,0.2,0c0.7,0,1,0.4,1,1.1c0,1.1-0.1,2.4-0.3,3.9
		c-0.1,1.2-0.3,2-0.5,2.4c-0.2,0.4-0.5,0.6-0.9,0.6c-0.3,0-0.6-0.1-1-0.3c-0.6-0.3-0.8-0.5-0.8-0.8c0-0.1,0-0.1,0.1-0.2
		c0.1-0.1,0.2-0.2,0.4-0.2c0.1,0,0.2,0,0.3,0.1c0.2,0.1,0.4,0.1,0.6,0.1c0.2,0,0.3-0.1,0.4-0.4c0.1-0.3,0.2-0.9,0.3-1.7
		c0.1-0.4,0.1-1.1,0.2-2.1C90,9.5,90,9.2,90,9.1c0-0.2-0.1-0.4-0.3-0.4c0,0-0.1,0-0.1,0l-0.5,0c-0.2,1.8-0.7,3.3-1.3,4.5
		c-0.3,0.7-0.7,1.2-1.1,1.7c-0.1,0.2-0.3,0.3-0.5,0.3c-0.1,0-0.2,0-0.3-0.1c-0.1-0.1-0.1-0.2-0.1-0.3c0-0.1,0.1-0.3,0.3-0.6
		c0,0,0.1-0.1,0.1-0.2c-0.1,0.1-0.5,0.2-1,0.3c-1.1,0.3-2.2,0.5-3.5,0.7c-0.3,0-0.4,0.1-0.5,0.1c-0.4,0-0.5-0.2-0.5-0.6
		c0-0.2,0.1-0.4,0.3-0.5c0.1,0,0.2-0.1,0.5-0.1c0.4,0,0.9-0.1,1.7-0.2V13l-1.4,0.1c-0.4,0-0.5-0.1-0.5-0.5c0-0.3,0.2-0.5,0.5-0.5
		L83,12v-0.6l-0.7,0c-0.1,0.2-0.3,0.3-0.5,0.3c-0.3,0-0.5-0.2-0.6-0.5l-0.3-2.7c0,0,0-0.1,0-0.1C80.8,8.2,81,8,81.4,8
		c0.2,0,0.3,0.1,0.5,0.2L83,8.1V7.6l-2.1,0.2c0,0,0,0-0.1,0c-0.3,0-0.5-0.2-0.5-0.5c0-0.3,0.2-0.5,0.5-0.5L83,6.6V6.2
		c-0.7,0.1-1.2,0.2-1.3,0.2c-0.2,0-0.4-0.1-0.4-0.3c0-0.1,0-0.1,0-0.2c0-0.2,0.1-0.3,0.3-0.4c0,0,0.2,0,0.4-0.1
		c0.9-0.1,1.8-0.4,2.7-0.7c0.3-0.1,0.4-0.1,0.5-0.1c0.2,0,0.4,0.1,0.5,0.3c0,0.1,0.1,0.2,0.1,0.3c0,0.3-0.1,0.4-0.4,0.5
		c-0.2,0.1-0.5,0.1-1,0.2v0.6l1.9-0.2c0.1,0,0.2,0,0.2,0c0.2,0.1,0.3,0.2,0.3,0.5c0,0.3-0.2,0.5-0.5,0.5l-2,0.2V8l1.3-0.1
		c0.1,0,0.1,0,0.1,0c0.5,0,0.8,0.2,0.8,0.7c0,0.1,0,0.1,0,0.1l-0.2,2.3c0,0.3-0.2,0.5-0.6,0.5c-0.2,0-0.4-0.1-0.5-0.2L84.2,11.4z
		 M83,9.4V8.9L82,9l0,0.5L83,9.4z M83,10.1l-0.9,0.1l0,0.5l0.8-0.1V10.1z M84.2,9.3l1-0.1l0-0.2c0-0.2-0.1-0.2-0.2-0.2l-0.8,0.1V9.3
		z M84.2,10.1v0.5l0.9-0.1l0-0.5L84.2,10.1z"/>
	<path d="M98.7,5.8l2.8-0.2c0,0,0,0,0,0c0.2,0,0.3,0.1,0.4,0.2C102,5.9,102,6,102,6.2c0,0.4-0.2,0.6-0.5,0.6l-0.8,0.1
		c-0.1,0.3-0.2,0.7-0.5,1.3l2.3-0.2c0,0,0,0,0,0c0.2,0,0.4,0.1,0.5,0.2c0.1,0.1,0.1,0.2,0.1,0.3c0,0.4-0.2,0.6-0.5,0.6l-7.5,0.5
		c0,0.1,0,0.1,0,0.2c0,0.7-0.1,1.4-0.3,2.3c-0.3,1.2-0.7,2.1-1.4,2.9c-0.2,0.2-0.3,0.3-0.5,0.3c-0.1,0-0.2,0-0.3-0.1
		c-0.1-0.1-0.2-0.2-0.2-0.4c0-0.1,0.1-0.3,0.2-0.5c0.4-0.7,0.7-1.4,0.8-2.1c0.2-0.7,0.2-1.5,0.2-2.2V9.8V9.7c-0.3,0-0.5-0.2-0.5-0.6
		c0-0.4,0.2-0.6,0.5-0.6l2-0.1c-0.1-0.4-0.3-0.8-0.5-1.2l-0.9,0.1c0,0,0,0,0,0c-0.1,0-0.3,0-0.4-0.1c-0.1-0.1-0.2-0.2-0.2-0.4
		c0-0.4,0.2-0.6,0.5-0.6l2.9-0.2V5.2c0-0.2,0.1-0.4,0.3-0.5c0.1-0.1,0.3-0.1,0.4-0.1c0.3,0,0.4,0.1,0.6,0.2c0.1,0.1,0.1,0.2,0.1,0.4
		V5.8z M97.4,10.6l0.8,0V10c0-0.4,0.2-0.5,0.7-0.5c0.5,0,0.7,0.2,0.7,0.5v0.5l2-0.1c0.4,0,0.6,0.2,0.6,0.6c0,0.3-0.2,0.5-0.5,0.5
		l-2.1,0.1v0.7l1.7-0.1c0,0,0,0,0,0c0.1,0,0.3,0,0.3,0.1c0.1,0.1,0.2,0.2,0.2,0.4c0,0.4-0.2,0.5-0.5,0.6l-1.8,0.1v0.8l2.9-0.1l0,0
		c0.1,0,0.3,0,0.4,0.1s0.2,0.3,0.2,0.4c0,0.4-0.2,0.6-0.5,0.6l-7.1,0.3h0c-0.3,0-0.5-0.2-0.5-0.6c0-0.4,0.2-0.6,0.5-0.6l2.8-0.1
		v-0.8l-1.7,0.1l0,0c-0.1,0-0.2,0-0.3-0.1c-0.1-0.1-0.2-0.2-0.2-0.4c0-0.3,0.2-0.5,0.5-0.6l1.8-0.1v-0.7l-1.5,0.1
		c-0.4,0.5-0.7,0.8-1,0.8c-0.1,0-0.2,0-0.3-0.1c-0.1-0.1-0.2-0.2-0.2-0.3c0-0.1,0.1-0.2,0.2-0.4c0.3-0.5,0.5-1,0.7-1.4
		c0.1-0.3,0.3-0.4,0.6-0.4c0.1,0,0.2,0,0.4,0.1c0.2,0.1,0.4,0.3,0.4,0.5C97.4,10.4,97.4,10.5,97.4,10.6z M98.9,8.2
		c0.1-0.4,0.3-0.8,0.4-1.3l-2.6,0.2c0.1,0.3,0.3,0.7,0.4,1.2L98.9,8.2z"/>
</g>
</svg>
