<?xml version="1.0" encoding="utf-8"?>
<!-- Generator: Adobe Illustrator 24.1.2, SVG Export Plug-In . SVG Version: 6.00 Build 0)  -->
<svg version="1.1" id="レイヤー_1" xmlns="http://www.w3.org/2000/svg" xmlns:xlink="http://www.w3.org/1999/xlink" x="0px"
	 y="0px" viewBox="0 0 48 48" style="enable-background:new 0 0 48 48;" xml:space="preserve">
<style type="text/css">
	.st0{fill:none;}
	.st1{fill:#C6C6C6;}
</style>
<g id="レイヤー_2_1_">
	<g id="Rectangle">
		<rect id="rect" class="st0" width="48" height="48"/>
	</g>
	<g id="icon_data">
		<path class="st1" d="M24,44.8c-0.5,0-1-0.2-1.4-0.6L5.1,26.7c-4.4-4.6-4.4-11.6,0-16.2C7.2,8.3,10.1,7,13.2,7
			c3.1-0.1,6.1,1.1,8.3,3.2l2.4,2.4l2.4-2.4c4.5-4.5,11.8-4.6,16.3-0.2c0.1,0.1,0.2,0.1,0.2,0.2c2.2,2.2,3.4,5.2,3.4,8.3
			c0,3.1-1.2,6-3.5,8.2L25.4,44.3C25,44.6,24.5,44.8,24,44.8z M13.5,10.9c-0.1,0-0.1,0-0.2,0c-2.1,0-4,0.9-5.4,2.4
			c-2.8,3-2.8,7.6,0,10.6L24,40l16.1-16.1c1.5-1.5,2.3-3.4,2.3-5.4c0-2-0.7-3.8-2.1-5.3c-0.1-0.1-0.1-0.1-0.2-0.2c-3-3-7.9-3-10.8,0
			l-3.8,3.8c-0.8,0.8-2,0.8-2.8,0L18.8,13C17.4,11.7,15.5,10.9,13.5,10.9z"/>
	</g>
</g>
</svg>
