<?xml version="1.0" encoding="utf-8"?>
<!-- Generator: Adobe Illustrator 24.1.2, SVG Export Plug-In . SVG Version: 6.00 Build 0)  -->
<svg version="1.1" id="レイヤー_1" xmlns="http://www.w3.org/2000/svg" xmlns:xlink="http://www.w3.org/1999/xlink" x="0px"
	 y="0px" width="20px" viewBox="0 0 48 48" style="enable-background:new 0 0 48 48;" xml:space="preserve">
<style type="text/css">
	.st0{fill:none;}
	.st1{fill:#0AA095;}
</style>
<rect class="st0" width="48" height="48"/>
<path class="st1" d="M39,41H9c-2.8,0-5-2.2-5-5V13c0-2.8,2.2-5,5-5h30c2.8,0,5,2.2,5,5v23C44,38.8,41.8,41,39,41z M9,12
	c-0.6,0-1,0.4-1,1v23c0,0.6,0.4,1,1,1h30c0.6,0,1-0.4,1-1V13c0-0.6-0.4-1-1-1H9z"/>
<path class="st1" d="M24,29.2c-1.2,0-2.4-0.4-3.5-1.1L11,21.8c-0.9-0.6-1.2-1.9-0.6-2.8c0.6-0.9,1.9-1.2,2.8-0.6l9.5,6.3
	c0.7,0.5,1.7,0.5,2.5,0l9.7-6.4c0.9-0.6,2.2-0.4,2.8,0.6c0.6,0.9,0.4,2.2-0.6,2.8l-9.7,6.4C26.4,28.8,25.2,29.2,24,29.2z"/>
</svg>
